<svg width="32" height="32" viewBox="0 0 32 32" fill="none" xmlns="http://www.w3.org/2000/svg">
<path d="M4.00008 10.6667H28.0001C28.3537 10.6667 28.6928 10.5262 28.9429 10.2761C29.1929 10.0261 29.3334 9.68696 29.3334 9.33333C29.3334 8.97971 29.1929 8.64057 28.9429 8.39052C28.6928 8.14048 28.3537 8 28.0001 8H4.00008C3.64646 8 3.30732 8.14048 3.05727 8.39052C2.80722 8.64057 2.66675 8.97971 2.66675 9.33333C2.66675 9.68696 2.80722 10.0261 3.05727 10.2761C3.30732 10.5262 3.64646 10.6667 4.00008 10.6667ZM28.0001 21.3333H4.00008C3.64646 21.3333 3.30732 21.4738 3.05727 21.7239C2.80722 21.9739 2.66675 22.313 2.66675 22.6667C2.66675 23.0203 2.80722 23.3594 3.05727 23.6095C3.30732 23.8595 3.64646 24 4.00008 24H28.0001C28.3537 24 28.6928 23.8595 28.9429 23.6095C29.1929 23.3594 29.3334 23.0203 29.3334 22.6667C29.3334 22.313 29.1929 21.9739 28.9429 21.7239C28.6928 21.4738 28.3537 21.3333 28.0001 21.3333ZM28.0001 14.6667H4.00008C3.64646 14.6667 3.30732 14.8071 3.05727 15.0572C2.80722 15.3072 2.66675 15.6464 2.66675 16C2.66675 16.3536 2.80722 16.6928 3.05727 16.9428C3.30732 17.1929 3.64646 17.3333 4.00008 17.3333H28.0001C28.3537 17.3333 28.6928 17.1929 28.9429 16.9428C29.1929 16.6928 29.3334 16.3536 29.3334 16C29.3334 15.6464 29.1929 15.3072 28.9429 15.0572C28.6928 14.8071 28.3537 14.6667 28.0001 14.6667Z" fill="white"/>
</svg>
